<svg xmlns="http://www.w3.org/2000/svg" version="1.1" xmlns:xlink="http://www.w3.org/1999/xlink" width="361" height="312"><svg width="361" height="312" viewBox="0 0 361 312" fill="none" xmlns="http://www.w3.org/2000/svg">
<path d="M59.5207 206.906C99.6135 138.455 139.367 70.5464 180.665 0C241.792 104.819 301.396 207.026 361 309.233C360.354 310.086 359.707 310.938 359.061 311.791C303.425 287.835 247.789 263.879 192.154 239.923C192.271 239.031 192.389 238.139 192.506 237.247C211.393 237.247 230.28 237.247 249.167 237.247C249.716 236.364 250.266 235.482 250.815 234.599C227.521 196.82 204.226 159.041 179.407 118.79C156.177 158.722 134.068 196.729 110.755 236.804C130.483 236.804 148.001 236.804 165.52 236.804C165.734 237.827 165.947 238.85 166.161 239.872C111.554 263.737 56.9467 287.603 2.3395 311.468C1.55966 310.648 0.779843 309.828 0 309.007C19.7272 275.154 39.4543 241.301 59.5207 206.906Z" fill="#591220"></path>
</svg><style>@media (prefers-color-scheme: light) { :root { filter: none; } }
@media (prefers-color-scheme: dark) { :root { filter: none; } }
</style></svg>